<svg width="97" height="68" viewBox="0 0 97 68" fill="none" xmlns="http://www.w3.org/2000/svg">
<path d="M51.6621 7.83203C45.1517 11.0872 39.0482 14.9935 33.3516 19.5508C27.6549 24.1081 23.6673 28.5026 21.3887 32.7344C26.597 33.8737 30.3405 36.1523 32.6191 39.5703C34.8978 42.8255 36.0371 46.3249 36.0371 50.0684C36.0371 55.1139 34.2467 59.3457 30.666 62.7637C27.0853 66.0189 22.9349 67.6465 18.2148 67.6465C13.1693 67.6465 8.9375 65.8561 5.51953 62.2754C2.26432 58.6947 0.636719 54.5443 0.636719 49.8242C0.636719 44.7786 1.9388 39.7331 4.54297 34.6875C7.3099 29.6419 10.8906 24.9219 15.2852 20.5273C19.6797 16.1328 24.6439 12.2266 30.1777 8.80859C35.7116 5.22786 41.3268 2.29818 47.0234 0.0195312L51.6621 7.83203ZM96.8281 7.83203C90.3177 11.0872 84.2142 14.9935 78.5176 19.5508C72.821 24.1081 68.8333 28.5026 66.5547 32.7344C71.763 33.8737 75.5065 36.1523 77.7852 39.5703C80.0638 42.8255 81.2031 46.3249 81.2031 50.0684C81.2031 55.1139 79.4128 59.3457 75.832 62.7637C72.2513 66.0189 68.1009 67.6465 63.3809 67.6465C58.3353 67.6465 54.1035 65.8561 50.6855 62.2754C47.4303 58.6947 45.8027 54.5443 45.8027 49.8242C45.8027 44.7786 47.1048 39.7331 49.709 34.6875C52.4759 29.6419 56.0566 24.9219 60.4512 20.5273C64.8457 16.1328 69.8099 12.2266 75.3438 8.80859C80.8776 5.22786 86.4928 2.29818 92.1895 0.0195312L96.8281 7.83203Z" fill="white"/>
</svg>
