<svg width="48" height="48" viewBox="0 0 48 48" fill="" xmlns="http://www.w3.org/2000/svg">
<path d="M8.20427 21.9258L6.88174 20.7988L5.38672 22.2618L8.37762 24.8086L14.4418 18.377L12.7809 17.0723L8.20427 21.9258Z" fill="#9DC4ED"/>
<path d="M8.20427 31.7705L6.88174 30.6435L5.38672 32.1064L8.37762 34.6532L14.4418 28.2216L12.7809 26.917L8.20427 31.7705Z" fill="#9DC4ED"/>
<path d="M8.20486 41.6162L6.88222 40.4892L5.38623 41.9502L8.37714 44.499L14.4418 38.0673L12.7809 36.7627L8.20486 41.6162Z" fill="#9DC4ED"/>
<path d="M45.9918 7.66697L44.9929 7.03611C44.0301 6.32669 40.6723 5.35964 38.503 8.11425L32.9674 15.4134V9.59265H26.6478C25.8044 8.05215 24.2572 6.85695 23.0221 6.08787C22.6518 2.63383 19.8717 0 16.4839 0C13.0956 0 10.3154 2.63383 9.94575 6.08787C8.71038 6.85695 7.16276 8.05215 6.3195 9.59265H0V48H32.9674V32.3224L47.1732 13.5908C48.6359 11.6601 48.1063 9.00392 45.9918 7.66697ZM37.9962 12.297L43.062 15.4971L27.4582 36.0732L22.3748 37.8359L22.3919 32.872L37.9962 12.297ZM11.589 7.49603L12.0807 7.21185L12.0989 6.6815C12.1887 4.05649 14.1148 1.99984 16.484 1.99984C18.8527 1.99984 20.7789 4.05649 20.8692 6.6815L20.8875 7.21185L21.3786 7.49505C22.4364 8.10534 24.7371 9.63076 25.0409 11.4911C23.7697 11.8329 20.9393 12.4628 17.3572 12.4628C17.0817 12.4628 16.8013 12.4597 16.4509 12.4509C12.4846 12.574 9.30225 11.8572 7.92723 11.489C8.231 9.62988 10.5317 8.10544 11.589 7.49603ZM30.7759 46H2.19155V11.5927H5.71314C5.69768 11.8234 5.78162 12.9277 5.78162 12.9277C5.78162 12.9277 9.45435 14.4629 16.484 14.4629C23.7922 14.4629 27.1863 12.9277 27.1863 12.9277C27.1863 12.9277 27.2701 11.8235 27.2547 11.5927H30.7759V18.303L20.2026 32.245L20.1736 40.7381L28.8728 37.7215L30.7759 35.2121V46ZM45.3712 12.4521L44.3093 13.8524L39.2436 10.6524L40.305 9.25293C41.0524 8.26668 42.6581 7.9922 43.7463 8.68065L44.7448 9.31151C45.8656 10.0195 46.1469 11.4287 45.3712 12.4521Z" fill="#3C566D"/>
</svg>
