<svg width="20" height="43" viewBox="0 0 20 43" fill="none" xmlns="http://www.w3.org/2000/svg">
<path d="M13.2925 12.6472L9.97749 10.6147L6.71499 12.6472C6.73749 12.8947 6.71499 13.1422 6.65499 13.3822L1.35249 35.2897C1.24749 35.7397 1.41249 36.2047 1.78749 36.4747L9.38499 42.0397C9.75249 42.3097 10.2475 42.3097 10.6075 42.0397L18.205 36.4747C18.5725 36.2047 18.745 35.7322 18.64 35.2897L13.3375 13.3822C13.285 13.1422 13.27 12.8947 13.2925 12.6472Z" fill="#3C566D"/>
<path d="M14.89 8.3424L13.3525 5.4699L9.99254 4.3374L6.96254 5.4249L5.10254 8.3424L6.55004 11.9424C6.64004 12.1674 6.69254 12.4074 6.71504 12.6474H13.285C13.3 12.4074 13.3525 12.1674 13.435 11.9424L14.8825 8.3424H14.89Z" fill="#3C566D"/>
<path d="M10 4.34473L13.03 5.43223L14.89 8.34973L14.1625 10.1647L10 4.34473Z" fill="#81948B"/>
<path d="M10.0001 4.3374L6.97011 5.4249L5.11011 8.3424L5.83761 10.1574L10.0001 4.3374Z" fill="#9DC4ED"/>
<path d="M1.71257 1.75006C1.45007 1.77256 1.26257 2.02006 1.30007 2.28256L2.15507 7.59256C2.22257 8.02756 2.59757 8.34256 3.03257 8.34256H5.10257L9.99257 4.33756C9.75257 4.33756 9.50507 4.30006 9.27257 4.21756L1.89257 1.76506C1.83257 1.74256 1.77257 1.73506 1.70507 1.74256L1.71257 1.75006Z" fill="#F0F4F6"/>
<path d="M18.22 1.75C18.1825 1.75 18.1375 1.7575 18.1 1.7725L10.72 4.225C10.4875 4.3 10.2475 4.345 10 4.345L14.89 8.35H16.96C17.395 8.35 17.77 8.035 17.8375 7.6L18.6925 2.29C18.7375 1.99 18.4975 1.7425 18.2125 1.7575L18.22 1.75Z" fill="#F0F4F6"/>
<path d="M15.4 9.09247H16.9675C17.7775 9.09247 18.46 8.51497 18.5875 7.71247L19.4425 2.40247C19.5475 1.74247 19.0975 1.11997 18.4375 1.01497C18.2425 0.98497 18.0476 0.99997 17.8676 1.05997L10.4876 3.51247C10.1726 3.61747 9.83505 3.61747 9.52005 3.51247L2.14005 1.05997C1.83255 0.95497 1.51005 0.97747 1.21755 1.12747C0.93255 1.26997 0.715049 1.52497 0.610049 1.82497C0.550049 2.01247 0.535049 2.20747 0.565049 2.40247L1.42005 7.71247C1.54755 8.51497 2.23005 9.09247 3.04005 9.09247H4.60755L5.86755 12.22C5.99505 12.535 6.01755 12.8725 5.94255 13.2025L0.640049 35.1175C0.460049 35.86 0.737549 36.6325 1.36005 37.0825L8.95755 42.6475C9.27255 42.88 9.64005 42.9925 10.015 42.9925C10.39 42.9925 10.7575 42.88 11.0725 42.6475L18.6701 37.0825C19.2851 36.6325 19.57 35.86 19.39 35.1175L14.0875 13.2025C14.005 12.8725 14.035 12.535 14.1625 12.22L15.4225 9.09247H15.4ZM12.7525 11.665C12.7225 11.74 12.7225 11.8225 12.7 11.8975H7.30755C7.28505 11.8225 7.28505 11.74 7.25505 11.665L6.01005 8.57497L10 5.31247L13.99 8.57497L12.745 11.665H12.7525ZM17.8825 2.63497L17.1026 7.47247C17.0951 7.53997 17.035 7.59247 16.96 7.59247H15.16L11.635 4.71247L17.8825 2.64247V2.63497ZM3.04005 7.59247C2.97255 7.59247 2.91255 7.53997 2.89755 7.47247L2.11755 2.63497L8.36505 4.70497L4.84005 7.58497H3.04005V7.59247ZM17.9125 35.47C17.95 35.62 17.89 35.7775 17.7625 35.875L10.1651 41.44C10.0676 41.515 9.93255 41.515 9.82755 41.44L2.23005 35.875C2.10255 35.785 2.04255 35.62 2.08005 35.47L7.38255 13.555C7.38255 13.555 7.38255 13.54 7.38255 13.525L7.41255 13.39H12.5575L12.595 13.5475L17.8975 35.4625L17.9125 35.47Z" fill="#81948B"/>
</svg>
