<svg width="48" height="48" viewBox="0 0 48 48" fill="none" xmlns="http://www.w3.org/2000/svg">
<g clip-path="url(#clip0_74_2)">
<path fill-rule="evenodd" clip-rule="evenodd" d="M4.57031 0H6.98828V1.04381C13.0391 2.82887 13.7305 6.59061 10.2227 12.4904C10.5938 6.62591 10.1367 5.37031 6.98828 5.09801V19.9231C6.99226 20.002 6.99226 20.0812 6.98828 20.1601C6.98828 22.0864 5.42578 23.9975 3.49219 24.4311C1.55859 24.8648 0 23.6495 0 21.7182C0 19.0911 2.79687 16.8068 4.57031 17.6136V0ZM40.2344 0H42.6523V1.04381C48.6992 2.82887 49.3906 6.59061 45.8828 12.4904C46.2734 6.62591 45.7969 5.37031 42.6523 5.09801V19.9231C42.6523 19.9987 42.6523 20.0794 42.6523 20.1601C42.6523 22.0864 41.0898 23.9975 39.1367 24.4311C37.1836 24.8648 35.6211 23.6495 35.6211 21.7182C35.6211 19.0911 38.418 16.8068 40.1914 17.6136V0H40.2344ZM27.543 34.612C28.125 34.4726 28.7229 34.4864 29.3008 34.6524V18.723L16.2422 23.5588C16.2422 29.8317 16.2422 36.1013 16.2422 42.3675C16.2422 45.3022 13.7344 47.4403 11.7227 47.9143C9.22656 48.469 7.19922 46.9058 7.19922 44.3845C7.19922 41.8632 9.23828 39.4226 11.7188 38.8679C12.5641 38.6601 13.4364 38.733 14.2539 39.0797V16.3076L31.2617 11.3104V36.9669C31.4492 39.6899 29.3086 41.7523 27.5273 42.1506C25.4414 42.6146 23.7539 41.3035 23.7539 39.2209C23.7539 37.1384 25.4414 35.076 27.5273 34.612H27.543Z" fill="#3C566D"/>
</g>
<defs>
<clipPath id="clip0_74_2">
<rect width="48" height="48" fill="white"/>
</clipPath>
</defs>
</svg>
